<?xml version="1.0" encoding="utf-8"?>
<!-- Generator: Adobe Illustrator 28.1.0, SVG Export Plug-In . SVG Version: 6.00 Build 0)  -->
<svg version="1.1" id="Layer_1" xmlns="http://www.w3.org/2000/svg" xmlns:xlink="http://www.w3.org/1999/xlink" x="0px" y="0px"
	 viewBox="0 0 1250.2 277.5" style="enable-background:new 0 0 1250.2 277.5;" xml:space="preserve">
<style type="text/css">
	.st0{fill:#783DBD;}
	.st1{fill:#300070;}
	.st2{fill:#231F20;}
</style>
<g id="WP_x5F_Primary_Logo_x5F_Dark">
	<g>
		<path class="st0" d="M1142.1,181.6c-3.1-3.1-7.2-5-11.5-5.5c-0.6-0.1-1.3-0.1-1.9-0.1c-0.6,0-1.3,0-1.9,0.1
			c-4.4,0.4-8.4,2.3-11.5,5.5c-7.4,7.4-7.4,19.5,0,26.9c3.6,3.6,8.4,5.6,13.4,5.6c5.1,0,9.8-2,13.4-5.6
			C1149.5,201,1149.5,189,1142.1,181.6"/>
		<path class="st1" d="M1248.8,93.8c0-4.9-1.9-9.7-5.6-13.4c-3.6-3.6-8.4-5.6-13.4-5.6c-5.1,0-9.8,2-13.4,5.6
			c-1.8,1.8-3.1,3.8-4,5.9c-1,2.4-1.5,4.9-1.5,7.5c0,4.9,1.8,9.7,5.6,13.4c3.4,3.4,7.9,5.4,12.8,5.5c0.2,0,0.4,0,0.7,0
			c0.2,0,0.4,0,0.7,0c4.8-0.2,9.3-2.1,12.8-5.5C1246.9,103.6,1248.8,98.7,1248.8,93.8"/>
		<path class="st0" d="M1243.2,208.5c7.9-7.9,7.1-21.3-1.6-28.3c-2.1-1.7-4.6-2.9-7.2-3.6c-2.4-0.6-4.8-0.5-7.2-0.7
			c-5.8-0.5-11.3-2.4-16-5.9c-4.9-3.6-8.7-8.5-10.9-14.2c-1-2.7-1.7-5.5-1.9-8.4c-0.2-2.4-0.1-4.9-0.7-7.2c-0.9-3.9-3-7.4-6-10.1
			c-3.6-3.1-8-4.5-12.7-4.7c-5.8-0.2-11.2-1.5-16.2-4.6c-4.9-3-9-7.4-11.6-12.5c-1.4-2.7-2.4-5.6-2.9-8.5c-0.5-2.5-0.4-4.9-0.6-7.4
			c-0.4-5.2-3-10.2-7-13.4c-8.9-7-22.2-4.8-28.1,4.9c-5.9,9.6-1.8,22.6,8.4,27.2c5.1,2.3,10.8,1.3,16.1,2.8
			c5.6,1.5,10.7,4.6,14.7,8.8c4,4.2,6.7,9.5,7.9,15.2c1,5,0.3,10,2.6,14.8c0.9,1.9,2.2,3.7,3.7,5.2c2,2,4.4,3.5,7.1,4.5
			c3.3,1.1,6.6,0.9,10.1,1.3c7.6,0.9,14.8,4.6,19.9,10.3c5.1,5.7,7.9,13.1,8,20.8c0.1,7.4,4,14.2,10.8,17.4
			C1228.8,215.6,1237.6,214.2,1243.2,208.5"/>
		<path class="st0" d="M1244.7,157.2c6.5-6.5,7.4-17.2,1.9-24.6c-2.5-3.4-6.1-5.9-10.2-7.1c-4.2-1.2-8.7-0.6-12.9-1.7
			c-9.5-2.4-17.6-9.2-21.4-18.3c-1.8-4.4-2.3-8.7-2.5-13.4c-0.2-4.5-2.2-8.8-5.3-12.1c-6.1-6.5-16.3-7.6-23.8-3
			c-7.8,4.8-10.9,14.8-7.6,23.3c1.7,4.1,4.8,7.6,8.7,9.6c2,1.1,4.2,1.8,6.4,2c2.3,0.3,4.6,0.1,7,0.5c9.6,1.4,18.3,7.3,23.1,15.8
			c2.3,4,3.6,8.6,3.9,13.2c0.2,2.5,0.1,4.8,0.7,7.2c0.6,2.1,1.5,4.1,2.7,5.9c5.2,7.3,14.9,10.3,23.2,6.7
			C1241,160.2,1243,158.9,1244.7,157.2"/>
	</g>
	<g>
		<polygon class="st2" points="0,79.5 38.2,79.5 62.7,171.3 91,79.5 121.8,79.4 151.6,171.5 176.3,79.4 213.9,79.4 169.6,213.3 
			136.4,213.4 106.1,125 77.2,213.4 44.6,213.4 		"/>
		<path class="st2" d="M293.5,217.4c-15.6,0-29.3-2.8-40.9-8.4c-11.7-5.6-20.8-13.8-27.3-24.6c-6.5-10.8-9.8-23.4-9.8-38
			c0-13.5,2.8-25.7,8.4-36.5c5.6-10.8,13.6-19.3,23.9-25.5c10.3-6.2,22.4-9.4,36-9.4c12.6,0,23.7,2.7,33.3,8c9.6,5.3,17,13,22.4,23
			c5.4,10,8,21.8,8.1,35.5c0,5.8-0.4,11.1-1.3,15.8l-94.5,0.1c4.6,20,19.8,30,45.5,30c8.1,0,15.9-0.8,23.5-2.5
			c7.6-1.7,14.5-4.1,20.7-7.2l3.7,28.7c-6.3,3.5-14,6.2-23.1,8.2C313.1,216.4,303.5,217.4,293.5,217.4 M312.6,131.9
			c-0.9-9.3-3.9-16.4-9.1-21.4c-5.2-5-12.1-7.5-20.7-7.5c-8.4,0-15.4,2.5-20.8,7.5c-5.4,5-8.9,12.2-10.5,21.5L312.6,131.9z"/>
		<path class="st2" d="M448.5,217.3c-9.3,0-17.7-1.9-25.1-5.6c-7.5-3.8-13.3-9.1-17.5-15.9l-0.5,17.4l-35,0L370.1,0l36.6,0l0.1,95
			c9.6-13.3,24.1-20,43.4-20c11.7,0,22.3,2.9,31.7,8.7c9.4,5.8,16.8,14.1,22.3,24.8c5.4,10.8,8.2,23.2,8.2,37.2
			c0,13-2.7,24.9-8,35.7c-5.3,10.8-12.9,19.5-22.7,26.1C471.8,214,460.7,217.3,448.5,217.3 M440.3,184.7c10.5,0,19.1-3.6,25.6-10.8
			c6.6-7.2,9.9-16.4,9.8-27.6c0-11.4-3.4-20.7-10-27.9c-6.7-7.2-15.2-10.8-25.5-10.8c-10.4,0-18.9,3.6-25.5,10.8
			c-6.7,7.2-10,16.5-10,27.9c0,11.2,3.3,20.4,9.9,27.6C421.2,181.1,429.8,184.7,440.3,184.7"/>
		<path class="st2" d="M529.3,79.1l35,0l0.5,17.4c9.1-14.4,23.9-21.6,44.5-21.6c11.7,0,22.3,2.9,31.7,8.7
			c9.4,5.8,16.8,14.1,22.3,24.8c5.4,10.8,8.2,23.2,8.2,37.2c0,13-2.7,24.9-8,35.7c-5.3,10.8-12.9,19.5-22.7,26.1
			c-9.8,6.6-20.9,9.9-33.1,9.9c-8.9,0-17-1.7-24.2-5.1c-7.2-3.4-13-8.3-17.4-14.6l0.1,80l-36.6,0L529.3,79.1z M599.4,184.5
			c10.5,0,19.1-3.6,25.6-10.8c6.6-7.2,9.9-16.4,9.8-27.6c0-11.4-3.4-20.7-10-27.9c-6.7-7.2-15.2-10.8-25.5-10.8
			c-10.4,0-18.9,3.6-25.5,10.8c-6.7,7.2-10,16.5-10,27.9c0,11.2,3.3,20.4,9.9,27.6C580.3,181,588.9,184.5,599.4,184.5"/>
		<path class="st2" d="M689.5,79l35.3,0l0.3,22.1c3.7-7.9,8.6-13.9,14.8-18.2c6.2-4.2,13.5-6.3,21.7-6.3c5.6,0,10.8,1,15.5,2.9
			l-3.1,34.5c-5.4-2.1-10.9-3.1-16.3-3.1c-10,0-17.8,3.6-23.3,10.8c-5.5,7.2-8.3,17.3-8.3,30.3l0,61l-36.6,0L689.5,79z"/>
		<path class="st2" d="M854.1,217c-13.2,0-25.2-3-36.2-8.9c-11-5.9-19.7-14.4-26.2-25.2c-6.5-10.9-9.8-23.2-9.8-37.1
			c0-12.8,3-24.6,9-35.4c6-10.8,14.6-19.4,25.6-25.9c11-6.5,23.5-9.8,37.3-9.8c13.2,0,25.2,2.9,36.2,8.8c11,5.9,19.7,14.2,26.2,25.1
			c6.5,10.9,9.8,23.2,9.8,37.1c0,13-3,24.9-9,35.7c-6,10.8-14.6,19.4-25.6,25.9C880.4,213.7,868,217,854.1,217 M854.1,184.3
			c10.3,0,18.9-3.6,25.5-10.8c6.7-7.2,10-16.5,10-27.9c0-11.2-3.3-20.4-9.9-27.6c-6.6-7.2-15.1-10.8-25.7-10.8
			c-10.5,0-19.1,3.6-25.6,10.8c-6.6,7.2-9.8,16.4-9.8,27.6c0,11.4,3.4,20.7,10,27.9C835.2,180.8,843.7,184.3,854.1,184.3"/>
		<path class="st2" d="M989.6,216.9c-10.2,0-19.8-1.2-29-3.5c-9.1-2.4-16.1-5.5-21.1-9.3l4.4-29.7c6,4,12.9,7.3,20.9,9.7
			c8,2.5,15.7,3.7,23,3.7c14.9,0,22.4-3.8,22.4-11.3c0-4-1.6-7.1-4.7-9.2c-3.2-2.1-9.7-4.6-19.7-7.4c-15.8-4.4-27.1-9.9-33.8-16.7
			c-6.8-6.7-10.1-15.8-10.2-27.2c0-12.8,4.8-22.9,14.4-30.3c9.6-7.4,22.9-11.1,39.7-11.1c8.2,0,16.5,1,24.7,2.9
			c8.2,1.9,15,4.5,20.3,7.6l-4.2,29c-5.4-3.2-11.7-5.6-18.8-7.5c-7.1-1.8-13.9-2.7-20.4-2.7c-12.8,0-19.2,3.4-19.2,10.3
			c0,3.9,1.5,6.9,4.6,9.1c3.1,2.2,9.2,4.6,18.3,7.2c16.8,4.9,28.7,10.7,35.7,17.3c6.9,6.7,10.4,15.9,10.4,27.6
			c0,13-5.1,23.2-15.4,30.5C1021.8,213.1,1007.7,216.8,989.6,216.9"/>
	</g>
	<g>
		<path class="st2" d="M1078,94.2c-3.4,0-6.5-0.8-9.4-2.4c-2.9-1.6-5.2-3.9-7-6.8c-1.8-2.9-2.7-6.2-2.7-9.8c0-3.4,0.8-6.5,2.4-9.4
			c1.6-2.8,3.9-5.2,6.8-6.9c2.9-1.8,6.2-2.6,9.8-2.6c3.4,0,6.6,0.8,9.4,2.4c2.9,1.6,5.2,3.9,6.9,6.8c1.7,2.9,2.6,6.2,2.6,9.8
			c0,3.4-0.8,6.5-2.4,9.4c-1.6,2.9-3.9,5.2-6.8,7C1084.9,93.3,1081.6,94.2,1078,94.2z M1078,90.8c2.8,0,5.3-0.7,7.6-2
			c2.3-1.3,4.2-3.2,5.7-5.6c1.4-2.4,2.2-5.1,2.2-8.1c0-2.8-0.7-5.4-2-7.8c-1.3-2.4-3.2-4.3-5.5-5.7c-2.4-1.4-5-2.2-8-2.2
			c-2.8,0-5.3,0.7-7.6,2c-2.3,1.3-4.2,3.2-5.7,5.6c-1.4,2.4-2.2,5.1-2.2,8.1c0,2.8,0.7,5.4,2,7.8c1.3,2.4,3.2,4.3,5.5,5.7
			C1072.4,90.1,1075.1,90.8,1078,90.8z M1071.6,65.6h6.1c2.2,0,4,0.5,5.2,1.5c1.3,1,1.9,2.4,1.9,4.2c0,2.5-1.1,4.3-3.2,5.2l4.5,7.2
			h-3.8l-4-6.6h-3.5v6.6h-3.2V65.6z M1074.9,74.4h2.5c1.4,0,2.5-0.2,3.1-0.7c0.6-0.5,0.9-1.2,0.9-2.3c0-1.9-1.3-2.9-4-2.9h-2.6V74.4
			z"/>
	</g>
</g>
</svg>
