<?xml version="1.0" encoding="UTF-8"?>
<svg id="Laag_2" data-name="Laag 2" xmlns="http://www.w3.org/2000/svg" viewBox="0 0 584.59 177.75">
  <defs>
    <style>
      .cls-1 {
        fill: #8f1cff;
      }

      .cls-1, .cls-2 {
        stroke-width: 0px;
      }

      .cls-2 {
        fill: #fff;
      }
    </style>
  </defs>
  <g id="Laag_1-2" data-name="Laag 1">
    <path class="cls-1" d="M471.85,148.58l35.75-.02c9.31,0,16.85-7.56,16.85-16.86,0-2.56-.59-4.98-1.62-7.16-1.03-2.17-2.52-4.17-4.5-5.8-7.18-5.92-17.8-4.91-23.73,2.27l-22.76,27.57Z"/>
    <circle class="cls-1" cx="225.98" cy="18.17" r="16.53"/>
    <g>
      <path class="cls-2" d="M44.71,150.83C19.72,150.83,1.34,137.52,0,118.89c-.06-.86.63-1.59,1.49-1.58l26.25.2c.71,0,1.32.51,1.44,1.21.29,1.82,1.15,3.49,2.52,4.92,2.79,2.89,7.53,4.56,13.01,4.56,8.23,0,14.21-3.86,14.21-9.19,0-6.74-8.79-9.03-19.91-11.94C22.32,102.72,1.6,97.32,1.6,74.46c0-20.47,16.35-33.7,41.65-33.7,23.78,0,41.29,12.69,42.61,30.47.06.86-.63,1.59-1.49,1.58l-26.05-.2c-.7,0-1.31-.51-1.43-1.2-.28-1.52-1.02-2.93-2.18-4.14-2.49-2.6-6.74-4.08-11.66-4.08-7.63,0-12.95,3.61-12.95,8.77,0,6.45,8.69,8.68,19.7,11.5,16.86,4.32,37.82,9.69,37.82,32.43,0,20.9-17.24,34.95-42.9,34.95Z"/>
      <path class="cls-2" d="M101.27,0c-.64,0-1.15.52-1.15,1.15v145.65c0,.82.66,1.48,1.48,1.48h27.1c.82,0,1.48-.66,1.48-1.48v-60.47c0-10.46,6.66-17.49,16.56-17.49s16.56,6.7,16.56,17.49v60.47c0,.82.66,1.48,1.48,1.48h27.1c.82,0,1.48-.66,1.48-1.48v-64.9c0-24.33-17.35-41.99-41.26-41.99-8.36,0-15.81,1.99-21.92,5.76V1.48c0-.82-.66-1.48-1.48-1.48h-27.42Z"/>
      <path class="cls-2" d="M379.13,71.85h25.36c.82,0,1.48-.66,1.48-1.48v-24.48c0-.82-.66-1.48-1.48-1.48h-85.71s-15.78,0-15.78,0c-1.07,0-1.93-.87-1.93-1.93v-2.19c0-7.42,4.54-11.76,12.37-11.76h17.79c.82,0,1.48-.66,1.48-1.48V2.59c0-.82-.66-1.48-1.48-1.48h-22.33c-24.95,0-37.95,11.76-37.95,34.24v6.87c0,1.21-.98,2.2-2.2,2.2h-11.11c-1.31,0-2.37,1.06-2.37,2.37v22.7c0,1.31,1.06,2.37,2.37,2.37h6.3c5.77,0,8.66-1,8.66,4.77v70.39c0,.82.66,1.48,1.48,1.48h25.51c.82,0,1.48-.66,1.48-1.48v-71.17c0-2.2,1.79-3.99,3.99-3.99h35.85c2.3,0,4.16,1.86,4.16,4.16v38.24c0,22.48,12.99,34.24,37.95,34.24h21.47c.82,0,1.48-.66,1.48-1.48v-24.48c0-.82-.66-1.48-1.48-1.48h-16.93c-7.84,0-12.37-4.33-12.37-11.76l.04-33.55c0-2.16,1.75-3.91,3.91-3.91Z"/>
      <path class="cls-2" d="M210.95,45.2v101.6c0,.82.66,1.48,1.48,1.48h27.1c.82,0,1.48-.66,1.48-1.48V45.2c0-1.04-.84-1.89-1.89-1.89h-26.28c-1.04,0-1.89.84-1.89,1.89Z"/>
      <path class="cls-2" d="M497.23,98.01c1.39-1.67,3.2-4.28,4.57-6.77,3.46-6.73,5.11-14.32,4.61-22.17-1.4-22.04-19.8-39.49-41.88-39.78-23.19-.3-42.24,18.06-43.07,40.99-.03.84.64,1.54,1.48,1.54h26.61c.75,0,1.39-.55,1.46-1.29.68-6.88,6.74-12.2,13.9-11.69,6.21.44,11.24,5.38,11.98,11.56.49,4.11-1.16,7.5-3.78,10.59l-55.15,65.16c-.81.96-.13,2.43,1.13,2.43h35.87c.44,0,.86-.2,1.14-.54l41.13-50.03h0Z"/>
    </g>
    <path class="cls-1" d="M532.84.15c-1.17,0-1.87,1.3-1.23,2.28,16.19,24.94,25.6,54.68,25.6,86.56s-9.39,61.55-25.54,86.48c-.64.98.05,2.28,1.23,2.28h28.41c.55,0,1.06-.3,1.31-.79,14.02-26.22,21.97-56.17,21.97-87.97s-7.97-61.82-22.01-88.06c-.26-.48-.77-.78-1.31-.78h-28.42Z"/>
  </g>
</svg>